<svg version="1.1" id="Layer_1" xmlns="http://www.w3.org/2000/svg" xmlns:xlink="http://www.w3.org/1999/xlink" x="0px" y="0px"
	 width="100%" viewBox="0 0 453 512" enable-background="new 0 0 453 512" xml:space="preserve">
<path fill="#373737" opacity="1.000000" stroke="none" 
	d="
M454.000000,167.000000 
	C454.000000,167.750000 454.000000,168.500000 453.535339,169.623260 
	C447.720428,170.333206 442.370209,170.669891 436.711975,170.924744 
	C435.616730,171.930664 434.468445,172.914734 434.119873,174.128448 
	C433.459686,176.426987 433.258362,178.857300 432.533173,181.109314 
	C420.523132,174.910690 408.846405,168.835617 396.822510,162.576050 
	C391.869965,161.231979 387.276215,160.023743 382.657074,158.921600 
	C366.359100,155.032867 350.059326,151.150940 333.746765,147.323914 
	C321.190521,144.378143 308.614014,141.518784 295.658997,138.482727 
	C294.442566,138.275864 293.613678,138.147461 292.784729,138.147247 
	C247.800110,138.135712 202.815475,138.126038 157.830902,138.169388 
	C156.216507,138.170944 154.602615,138.706619 152.587006,139.009735 
	C151.361237,139.136261 150.520905,139.177856 149.714966,139.366455 
	C118.765541,146.608948 87.835335,153.934982 56.854530,161.040390 
	C52.421764,162.057022 50.923260,164.153885 50.957081,168.596115 
	C51.120632,190.077377 51.020931,211.560593 51.034538,233.043106 
	C51.038887,239.905441 51.164127,240.108337 58.045311,240.012344 
	C79.840988,239.708298 101.637009,239.390152 123.429657,238.925308 
	C133.401764,238.712631 143.366318,238.144287 153.779144,237.789398 
	C200.858765,237.871826 247.493515,237.903061 294.128265,237.922775 
	C294.789307,237.923050 295.450439,237.778732 296.565125,237.785675 
	C310.440186,238.383240 323.858765,238.995514 337.283722,239.387604 
	C357.169464,239.968323 377.059753,240.392868 397.373535,240.970917 
	C411.780304,242.099304 425.764893,243.101288 439.739288,244.229401 
	C441.591370,244.378906 443.391693,245.170029 444.768616,245.765106 
	C441.894775,245.913101 439.468292,245.960007 436.660767,246.080582 
	C435.616150,246.800446 434.395599,247.430359 434.376221,248.095352 
	C434.204834,253.965042 434.140808,259.844788 434.351257,265.710571 
	C434.379669,266.502472 436.104889,267.233490 437.492920,268.004333 
	C440.035095,268.134460 442.128754,268.252869 443.985291,268.665771 
	C441.984009,269.279785 440.232269,269.739746 438.453766,269.896423 
	C424.591949,271.117310 410.725006,272.279816 396.448547,273.419495 
	C368.297577,275.370422 340.556030,277.339294 312.819275,279.373230 
	C307.201355,279.785187 301.601471,280.442810 295.528656,280.921814 
	C249.087387,280.839844 203.110703,280.820496 157.134033,280.819977 
	C155.807617,280.819946 154.481201,281.019135 152.739151,281.004761 
	C141.244095,279.938324 130.173386,278.871368 119.083344,278.072998 
	C98.536423,276.593781 77.976379,275.297699 57.425777,273.868011 
	C51.255848,273.438751 51.047924,273.505493 51.040192,279.861725 
	C51.015289,300.336212 51.029224,320.810791 51.030045,341.285309 
	C51.030418,350.657013 51.032307,350.657349 60.170860,352.738007 
	C60.495209,352.811829 60.826656,352.854156 61.151562,352.925812 
	C82.918190,357.726868 104.662811,362.631042 126.461441,367.282074 
	C135.226074,369.152130 144.109146,370.467041 153.287781,372.271545 
	C155.602036,372.712250 157.566666,373.092438 159.531601,373.093964 
	C203.073044,373.127869 246.614487,373.125061 290.155945,373.103394 
	C292.139038,373.102386 294.122009,372.859741 296.488098,372.721985 
	C321.867310,367.356201 346.875793,362.054565 371.852875,356.608795 
	C380.405518,354.744049 388.879425,352.518158 397.758057,350.415466 
	C409.720764,344.864655 421.314667,339.355560 433.117950,334.199890 
	C433.574554,336.592499 433.540436,338.726837 434.184296,340.632019 
	C434.519958,341.625214 436.050171,342.214752 437.465149,342.998657 
	C443.259644,343.340424 448.629822,343.670227 454.000000,344.000000 
	C454.000000,344.000000 454.000000,344.500000 453.808228,345.024536 
	C452.082428,346.808228 450.633362,348.191620 449.001312,349.307404 
	C431.685974,361.145447 414.341553,372.940918 396.607422,384.788849 
	C377.663666,390.519379 359.102020,396.158875 340.576538,401.914734 
	C325.695770,406.538177 310.858826,411.302582 295.534302,415.976349 
	C248.039566,415.949158 201.012939,415.950012 153.661560,415.771179 
	C148.706589,414.272003 144.047531,413.045380 139.450882,411.617737 
	C112.646660,403.292908 85.864693,394.896454 59.057713,386.580566 
	C51.413521,384.209229 51.032848,384.561951 51.030567,392.776306 
	C51.024754,413.721497 51.098782,434.667297 50.919834,455.610962 
	C50.901566,457.748688 49.386734,459.873657 48.335182,461.799500 
	C41.787842,454.083008 35.314964,446.696564 29.196445,439.027435 
	C22.043375,430.061615 15.260865,420.800995 8.184302,411.772766 
	C6.014974,409.005127 3.407067,406.581268 1.000002,404.000000 
	C1.000000,384.312439 1.000000,364.624878 1.451073,344.516876 
	C3.559133,344.064301 5.221219,343.933685 6.872118,344.019165 
	C11.195251,344.242981 13.201865,342.585175 13.084414,337.934265 
	C12.897641,330.538177 10.328718,327.760254 1.000000,326.000000 
	C1.000000,306.979095 1.000000,287.958221 1.461065,268.469727 
	C14.484344,267.816193 12.908040,269.610077 12.989415,258.025604 
	C13.073956,245.990479 13.008639,245.990021 1.000000,246.000000 
	C1.000000,226.979111 1.000000,207.958206 1.367663,188.497314 
	C3.679033,187.134201 5.609185,186.181152 7.569094,185.293839 
	C12.559972,183.034302 14.377864,178.966141 12.876647,172.966446 
	C11.706322,168.289185 7.772913,170.527237 4.977096,170.026215 
	C3.691129,169.795776 2.328091,169.995392 1.000000,170.000000 
	C1.000000,149.979111 1.000000,129.958206 1.351284,109.482338 
	C10.497493,98.278969 19.291765,87.530037 28.087833,76.782578 
	C30.043020,74.393639 32.005863,72.010971 33.962894,69.623535 
	C39.051174,63.416225 44.138184,57.207867 49.523659,51.238235 
	C50.224632,53.719795 50.968521,55.961643 50.977745,58.206512 
	C51.066692,79.851891 51.014225,101.497803 51.044525,123.143509 
	C51.052685,128.970779 51.533001,129.300430 57.071022,127.486588 
	C78.576469,120.442940 100.078316,113.388168 121.569748,106.301888 
	C132.143646,102.815407 142.691849,99.251007 153.704208,95.719742 
	C180.655823,95.720398 207.154938,95.749550 233.653976,95.717522 
	C254.484268,95.692345 275.314453,95.591660 296.479736,95.701775 
	C315.476837,101.935814 334.126099,108.032280 352.804932,114.036690 
	C367.518188,118.766342 382.267914,123.382553 397.220337,128.298569 
	C414.401001,140.437714 431.346893,152.350266 448.348969,164.182037 
	C450.058441,165.371689 452.108185,166.072372 454.000000,167.000000 
z"/>
<path fill="#7B7B7B" opacity="1.000000" stroke="none" 
	d="
M153.986298,415.950897 
	C201.012939,415.950012 248.039566,415.949158 295.530334,416.444702 
	C295.996307,448.960785 295.998138,480.980377 296.000000,513.000000 
	C248.645767,513.000000 201.291550,513.000000 153.509918,512.532715 
	C153.102188,482.650665 153.100616,453.235748 153.178024,423.821075 
	C153.184921,421.196991 153.704712,418.574249 153.986298,415.950897 
z"/>
<path fill="#7B7B7B" opacity="1.000000" stroke="none" 
	d="
M296.144684,95.524506 
	C275.314453,95.591660 254.484268,95.692345 233.653976,95.717522 
	C207.154938,95.749550 180.655823,95.720398 153.663498,95.276886 
	C153.113510,63.557446 153.056747,32.278721 153.000000,1.000000 
	C200.354233,1.000000 247.708450,1.000000 295.524414,1.468618 
	C296.038971,33.132996 296.091827,64.328751 296.144684,95.524506 
z"/>
<path fill="#4E4E4E" opacity="1.000000" stroke="none" 
	d="
M153.661560,415.771179 
	C153.704712,418.574249 153.184921,421.196991 153.178024,423.821075 
	C153.100616,453.235748 153.102188,482.650665 153.041260,512.532715 
	C151.285645,513.000000 149.571289,513.000000 147.375809,512.643616 
	C144.641922,511.047485 142.424850,509.737000 140.130280,508.580200 
	C130.024689,503.485535 119.917511,498.393188 109.769882,493.383087 
	C102.694611,489.889832 95.529030,486.579742 88.447289,483.099335 
	C80.971016,479.425018 73.486992,475.758423 66.117889,471.876740 
	C60.181206,468.749603 54.410633,465.307129 48.566368,462.004547 
	C49.386734,459.873657 50.901566,457.748688 50.919834,455.610962 
	C51.098782,434.667297 51.024754,413.721497 51.030567,392.776306 
	C51.032848,384.561951 51.413521,384.209229 59.057713,386.580566 
	C85.864693,394.896454 112.646660,403.292908 139.450882,411.617737 
	C144.047531,413.045380 148.706589,414.272003 153.661560,415.771179 
z"/>
<path fill="#989898" opacity="1.000000" stroke="none" 
	d="
M296.428467,513.000000 
	C295.998138,480.980377 295.996307,448.960785 295.998444,416.472778 
	C310.858826,411.302582 325.695770,406.538177 340.576538,401.914734 
	C359.102020,396.158875 377.663666,390.519379 396.614197,385.276306 
	C397.030853,408.840790 396.979126,431.958954 397.142578,455.075623 
	C397.161285,457.724762 398.382477,460.365448 398.904297,463.343536 
	C390.703003,467.816528 382.637543,471.944336 374.585815,476.098694 
	C365.661163,480.703461 356.844391,485.529449 347.809784,489.906372 
	C332.947632,497.106506 317.942047,504.010406 303.030090,511.108948 
	C302.505524,511.358612 302.335327,512.352783 302.000000,513.000000 
	C300.285645,513.000000 298.571289,513.000000 296.428467,513.000000 
z"/>
<path fill="#4E4E4E" opacity="1.000000" stroke="none" 
	d="
M152.571533,1.000000 
	C153.056747,32.278721 153.113510,63.557446 153.210968,95.279022 
	C142.691849,99.251007 132.143646,102.815407 121.569748,106.301888 
	C100.078316,113.388168 78.576469,120.442940 57.071022,127.486588 
	C51.533001,129.300430 51.052685,128.970779 51.044525,123.143509 
	C51.014225,101.497803 51.066692,79.851891 50.977745,58.206512 
	C50.968521,55.961643 50.224632,53.719795 49.621567,50.912994 
	C53.318874,48.257469 57.154118,46.037941 61.127823,44.102730 
	C67.453392,41.022144 73.911057,38.213070 80.241005,35.141094 
	C90.481583,30.171259 100.673912,25.101536 110.867928,20.036360 
	C120.847588,15.077693 130.827026,10.117363 140.752457,5.051741 
	C142.951477,3.929435 144.923477,2.362308 147.000000,0.999999 
	C148.714355,1.000000 150.428711,1.000000 152.571533,1.000000 
z"/>
<path fill="#989898" opacity="1.000000" stroke="none" 
	d="
M296.479736,95.701782 
	C296.091827,64.328751 296.038971,33.132996 295.993042,1.468618 
	C297.714355,1.000000 299.428711,1.000000 301.583923,1.381256 
	C313.627716,7.638813 325.217590,13.541213 336.836914,19.384987 
	C352.234161,27.128822 367.671051,34.793976 383.055817,42.562424 
	C388.418427,45.270245 393.676819,48.184437 398.685303,51.248558 
	C397.943573,54.070091 397.126709,56.645531 397.113434,59.225113 
	C396.995361,82.166046 397.019318,105.107704 397.001434,128.049149 
	C382.267914,123.382553 367.518188,118.766342 352.804932,114.036690 
	C334.126099,108.032280 315.476837,101.935814 296.479736,95.701782 
z"/>
<path fill="#000000" opacity="1.000000" stroke="none" 
	d="
M302.468628,513.000000 
	C302.335327,512.352783 302.505524,511.358612 303.030090,511.108948 
	C317.942047,504.010406 332.947632,497.106506 347.809784,489.906372 
	C356.844391,485.529449 365.661163,480.703461 374.585815,476.098694 
	C382.637543,471.944336 390.703003,467.816528 399.227234,463.221497 
	C401.899414,460.240662 404.081573,457.692810 406.318726,455.194153 
	C414.287292,446.294250 422.243988,437.383331 430.263641,428.529541 
	C437.740479,420.275024 445.287445,412.083954 452.839966,403.898590 
	C453.000946,403.724152 453.603455,403.957092 454.000000,404.000000 
	C454.000000,440.272339 454.000000,476.544678 454.000000,513.000000 
	C403.645935,513.000000 353.291626,513.000000 302.468628,513.000000 
z"/>
<path fill="#000000" opacity="1.000000" stroke="none" 
	d="
M398.982819,51.004383 
	C393.676819,48.184437 388.418427,45.270245 383.055817,42.562424 
	C367.671051,34.793976 352.234161,27.128822 336.836914,19.384987 
	C325.217590,13.541213 313.627716,7.638813 302.012390,1.381256 
	C352.581268,1.000000 403.162567,1.000000 454.000000,1.000000 
	C454.000000,36.687153 454.000000,72.374916 453.697845,108.780975 
	C450.285400,106.416862 447.011505,103.480644 444.099487,100.221107 
	C438.341583,93.776009 432.886230,87.060165 427.113678,80.628639 
	C421.625702,74.514130 415.916382,68.597069 410.259064,62.636185 
	C406.541870,58.719467 402.744354,54.878998 398.982819,51.004383 
z"/>
<path fill="#000000" opacity="1.000000" stroke="none" 
	d="
M48.335178,461.799500 
	C54.410633,465.307129 60.181206,468.749603 66.117889,471.876740 
	C73.486992,475.758423 80.971016,479.425018 88.447289,483.099335 
	C95.529030,486.579742 102.694611,489.889832 109.769882,493.383087 
	C119.917511,498.393188 130.024689,503.485535 140.130280,508.580200 
	C142.424850,509.737000 144.641922,511.047485 146.947342,512.643616 
	C98.416962,513.000000 49.833923,513.000000 1.000000,513.000000 
	C1.000000,476.979492 1.000000,440.958405 1.000002,404.468658 
	C3.407067,406.581268 6.014974,409.005127 8.184302,411.772766 
	C15.260865,420.800995 22.043375,430.061615 29.196445,439.027435 
	C35.314964,446.696564 41.787842,454.083008 48.335178,461.799500 
z"/>
<path fill="#000000" opacity="1.000000" stroke="none" 
	d="
M146.531342,0.999999 
	C144.923477,2.362308 142.951477,3.929435 140.752457,5.051741 
	C130.827026,10.117363 120.847588,15.077693 110.867928,20.036360 
	C100.673912,25.101536 90.481583,30.171259 80.241005,35.141094 
	C73.911057,38.213070 67.453392,41.022144 61.127823,44.102730 
	C57.154118,46.037941 53.318874,48.257469 49.323608,50.674683 
	C44.138184,57.207867 39.051174,63.416225 33.962894,69.623535 
	C32.005863,72.010971 30.043020,74.393639 28.087833,76.782578 
	C19.291765,87.530037 10.497493,98.278969 1.351284,109.013680 
	C1.000000,73.062103 1.000000,37.124210 1.000000,1.000000 
	C49.354069,1.000000 97.708374,1.000000 146.531342,0.999999 
z"/>
<path fill="#7B7B7B" opacity="1.000000" stroke="none" 
	d="
M454.000000,403.531342 
	C453.603455,403.957092 453.000946,403.724152 452.839966,403.898590 
	C445.287445,412.083954 437.740479,420.275024 430.263641,428.529541 
	C422.243988,437.383331 414.287292,446.294250 406.318726,455.194153 
	C404.081573,457.692810 401.899414,460.240662 399.369080,462.888000 
	C398.382477,460.365448 397.161285,457.724762 397.142578,455.075623 
	C396.979126,431.958954 397.030853,408.840790 397.011963,385.235596 
	C414.341553,372.940918 431.685974,361.145447 449.001312,349.307404 
	C450.633362,348.191620 452.082428,346.808228 453.808228,345.274536 
	C454.000000,364.354218 454.000000,383.708466 454.000000,403.531342 
z"/>
<path fill="#7B7B7B" opacity="1.000000" stroke="none" 
	d="
M398.685303,51.248558 
	C402.744354,54.878998 406.541870,58.719467 410.259064,62.636185 
	C415.916382,68.597069 421.625702,74.514130 427.113678,80.628639 
	C432.886230,87.060165 438.341583,93.776009 444.099487,100.221107 
	C447.011505,103.480644 450.285400,106.416862 453.697845,109.249634 
	C454.000000,128.020889 454.000000,147.041794 454.000000,166.531342 
	C452.108185,166.072372 450.058441,165.371689 448.348969,164.182037 
	C431.346893,152.350266 414.401001,140.437714 397.220337,128.298569 
	C397.019318,105.107704 396.995361,82.166046 397.113434,59.225113 
	C397.126709,56.645531 397.943573,54.070091 398.685303,51.248558 
z"/>
<path fill="#7B7B7B" opacity="1.000000" stroke="none" 
	d="
M432.908539,333.846466 
	C421.314667,339.355560 409.720764,344.864655 397.690186,349.911438 
	C397.187714,346.139801 397.075684,342.830658 397.063660,339.521088 
	C396.983704,317.500885 396.925171,295.480621 396.859680,273.460358 
	C410.725006,272.279816 424.591949,271.117310 438.453766,269.896423 
	C440.232269,269.739746 441.984009,269.279785 444.424835,268.651306 
	C448.067657,268.228210 451.033844,268.114105 454.000000,268.000000 
	C454.000000,287.020905 454.000000,306.041779 453.661682,325.306396 
	C447.879120,328.351349 442.434906,331.152557 436.788696,333.697815 
	C435.360626,333.576721 434.134583,333.711578 432.908539,333.846466 
z"/>
<path fill="#7B7B7B" opacity="1.000000" stroke="none" 
	d="
M445.215973,245.663986 
	C443.391693,245.170029 441.591370,244.378906 439.739288,244.229401 
	C425.764893,243.101288 411.780304,242.099304 397.391663,240.510986 
	C397.046143,214.229568 397.107910,188.495041 397.169647,162.760529 
	C408.846405,168.835617 420.523132,174.910690 432.805054,181.293549 
	C434.607025,181.399689 435.803864,181.198059 437.343811,181.117065 
	C438.964539,182.080414 440.157135,183.112762 441.535583,183.730286 
	C445.651337,185.574097 449.839874,187.255295 454.000000,189.000000 
	C454.000000,207.687561 454.000000,226.375122 453.557434,245.513077 
	C450.481934,245.863647 447.848938,245.763809 445.215973,245.663986 
z"/>
<path fill="#000000" opacity="1.000000" stroke="none" 
	d="
M444.768616,245.765106 
	C447.848938,245.763809 450.481934,245.863647 453.557434,245.981735 
	C454.000000,253.020950 454.000000,260.041901 454.000000,267.531433 
	C451.033844,268.114105 448.067657,268.228210 444.661987,268.356812 
	C442.128754,268.252869 440.035095,268.134460 437.486084,267.536316 
	C437.034454,260.040039 437.038116,253.023468 437.041809,246.006897 
	C439.468292,245.960007 441.894775,245.913101 444.768616,245.765106 
z"/>
<path fill="#000000" opacity="1.000000" stroke="none" 
	d="
M1.000000,246.468567 
	C13.008639,245.990021 13.073956,245.990479 12.989415,258.025604 
	C12.908040,269.610077 14.484344,267.816193 1.461065,268.001068 
	C1.000000,260.979065 1.000000,253.958099 1.000000,246.468567 
z"/>
<path fill="#000000" opacity="1.000000" stroke="none" 
	d="
M454.000000,188.531723 
	C449.839874,187.255295 445.651337,185.574097 441.535583,183.730286 
	C440.157135,183.112762 438.964539,182.080414 437.350677,180.663345 
	C437.016266,177.061539 437.018127,174.034058 437.019958,171.006592 
	C442.370209,170.669891 447.720428,170.333206 453.535339,169.998260 
	C454.000000,176.021149 454.000000,182.042297 454.000000,188.531723 
z"/>
<path fill="#000000" opacity="1.000000" stroke="none" 
	d="
M436.990662,333.953796 
	C442.434906,331.152557 447.879120,328.351349 453.661682,325.775085 
	C454.000000,331.688049 454.000000,337.376068 454.000000,343.532043 
	C448.629822,343.670227 443.259644,343.340424 437.458557,342.548187 
	C437.015350,339.375092 437.003021,336.664429 436.990662,333.953796 
z"/>
<path fill="#000000" opacity="1.000000" stroke="none" 
	d="
M1.000000,326.467957 
	C10.328718,327.760254 12.897641,330.538177 13.084414,337.934265 
	C13.201865,342.585175 11.195251,344.242981 6.872118,344.019165 
	C5.221219,343.933685 3.559133,344.064301 1.451073,344.048218 
	C1.000000,338.311951 1.000000,332.623932 1.000000,326.467957 
z"/>
<path fill="#000000" opacity="1.000000" stroke="none" 
	d="
M1.000000,170.467941 
	C2.328091,169.995392 3.691129,169.795776 4.977096,170.026215 
	C7.772913,170.527237 11.706322,168.289185 12.876647,172.966446 
	C14.377864,178.966141 12.559972,183.034302 7.569094,185.293839 
	C5.609185,186.181152 3.679033,187.134201 1.367663,188.028656 
	C1.000000,182.311966 1.000000,176.623917 1.000000,170.467941 
z"/>
<path fill="#7B7B7B" opacity="1.000000" stroke="none" 
	d="
M152.988495,138.993362 
	C154.602615,138.706619 156.216507,138.170944 157.830902,138.169388 
	C202.815475,138.126038 247.800110,138.135712 292.784729,138.147247 
	C293.613678,138.147461 294.442566,138.275864 295.645660,138.980515 
	C296.050385,172.311676 296.080933,205.006775 296.111511,237.701904 
	C295.450439,237.778732 294.789307,237.923050 294.128265,237.922775 
	C247.493515,237.903061 200.858765,237.871826 153.739655,237.345398 
	C153.166367,204.230606 153.077423,171.611984 152.988495,138.993362 
z"/>
<path fill="#7B7B7B" opacity="1.000000" stroke="none" 
	d="
M153.154785,281.125397 
	C154.481201,281.019135 155.807617,280.819946 157.134033,280.819977 
	C203.110703,280.820496 249.087387,280.839844 295.527161,281.391479 
	C296.028534,312.194214 296.066772,342.461945 296.105042,372.729675 
	C294.122009,372.859741 292.139038,373.102386 290.155945,373.103394 
	C246.614487,373.125061 203.073044,373.127869 159.531601,373.093964 
	C157.566666,373.092438 155.602036,372.712250 153.343704,371.802185 
	C153.085037,341.105743 153.119904,311.115570 153.154785,281.125397 
z"/>
<path fill="#4E4E4E" opacity="1.000000" stroke="none" 
	d="
M152.587006,139.009735 
	C153.077423,171.611984 153.166367,204.230606 153.294800,237.293228 
	C143.366318,238.144287 133.401764,238.712631 123.429657,238.925308 
	C101.637009,239.390152 79.840988,239.708298 58.045311,240.012344 
	C51.164127,240.108337 51.038887,239.905441 51.034538,233.043106 
	C51.020931,211.560593 51.120632,190.077377 50.957081,168.596115 
	C50.923260,164.153885 52.421764,162.057022 56.854530,161.040390 
	C87.835335,153.934982 118.765541,146.608948 149.714966,139.366455 
	C150.520905,139.177856 151.361237,139.136261 152.587006,139.009735 
z"/>
<path fill="#989898" opacity="1.000000" stroke="none" 
	d="
M296.565125,237.785675 
	C296.080933,205.006775 296.050385,172.311676 296.033173,139.118774 
	C308.614014,141.518784 321.190521,144.378143 333.746765,147.323914 
	C350.059326,151.150940 366.359100,155.032867 382.657074,158.921600 
	C387.276215,160.023743 391.869965,161.231979 396.822510,162.576050 
	C397.107910,188.495041 397.046143,214.229568 396.966248,240.423996 
	C377.059753,240.392868 357.169464,239.968323 337.283722,239.387604 
	C323.858765,238.995514 310.440186,238.383240 296.565125,237.785675 
z"/>
<path fill="#4E4E4E" opacity="1.000000" stroke="none" 
	d="
M152.739151,281.004761 
	C153.119904,311.115570 153.085037,341.105743 152.994232,371.565247 
	C144.109146,370.467041 135.226074,369.152130 126.461441,367.282074 
	C104.662811,362.631042 82.918190,357.726868 61.151562,352.925812 
	C60.826656,352.854156 60.495209,352.811829 60.170860,352.738007 
	C51.032307,350.657349 51.030418,350.657013 51.030045,341.285309 
	C51.029224,320.810791 51.015289,300.336212 51.040192,279.861725 
	C51.047924,273.505493 51.255848,273.438751 57.425777,273.868011 
	C77.976379,275.297699 98.536423,276.593781 119.083344,278.072998 
	C130.173386,278.871368 141.244095,279.938324 152.739151,281.004761 
z"/>
<path fill="#989898" opacity="1.000000" stroke="none" 
	d="
M296.488068,372.721985 
	C296.066772,342.461945 296.028534,312.194214 295.991760,281.456848 
	C301.601471,280.442810 307.201355,279.785187 312.819275,279.373230 
	C340.556030,277.339294 368.297577,275.370422 396.448547,273.419495 
	C396.925171,295.480621 396.983704,317.500885 397.063660,339.521088 
	C397.075684,342.830658 397.187714,346.139801 397.321411,349.953186 
	C388.879425,352.518158 380.405518,354.744049 371.852875,356.608795 
	C346.875793,362.054565 321.867310,367.356201 296.488068,372.721985 
z"/>
<path fill="#494949" opacity="1.000000" stroke="none" 
	d="
M436.660767,246.080582 
	C437.038116,253.023468 437.034454,260.040039 437.037598,267.524658 
	C436.104889,267.233490 434.379669,266.502472 434.351257,265.710571 
	C434.140808,259.844788 434.204834,253.965042 434.376221,248.095352 
	C434.395599,247.430359 435.616150,246.800446 436.660767,246.080582 
z"/>
<path fill="#494949" opacity="1.000000" stroke="none" 
	d="
M436.711975,170.924759 
	C437.018127,174.034058 437.016266,177.061539 437.007538,180.542725 
	C435.803864,181.198059 434.607025,181.399689 433.138336,181.417084 
	C433.258362,178.857300 433.459686,176.426987 434.119873,174.128448 
	C434.468445,172.914734 435.616730,171.930664 436.711975,170.924759 
z"/>
<path fill="#494949" opacity="1.000000" stroke="none" 
	d="
M436.788666,333.697815 
	C437.003021,336.664429 437.015350,339.375092 437.034241,342.536194 
	C436.050171,342.214752 434.519958,341.625214 434.184296,340.632019 
	C433.540436,338.726837 433.574554,336.592499 433.117950,334.199829 
	C434.134583,333.711578 435.360626,333.576721 436.788666,333.697815 
z"/>
</svg>